<?xml version="1.0" encoding="utf-8"?><svg xml:space="preserve" viewBox="0 0 100 100" y="0" x="0" xmlns="http://www.w3.org/2000/svg" id="圖層_1" version="1.1" width="200px" height="200px" xmlns:xlink="http://www.w3.org/1999/xlink" style="width:100%;height:100%;background-size:initial;background-repeat-y:initial;background-repeat-x:initial;background-position-y:initial;background-position-x:initial;background-origin:initial;background-color:initial;background-clip:initial;background-attachment:initial;animation-play-state:paused" ><g class="ldl-scale" style="transform-origin:50% 50%;transform:rotate(0deg) scale(0.8, 0.8);animation-play-state:paused" ><path stroke-miterlimit="10" stroke-linejoin="round" stroke-width="4" stroke="#333" fill="none" d="M90 54.515L76.062 43.434V26.042a2.274 2.274 0 0 0-2.274-2.274h-6.986a2.274 2.274 0 0 0-2.274 2.274v8.221L50 22.714 10 54.515l5.108 6.424 5.827-4.633v17.135a3.846 3.846 0 0 0 3.846 3.846H75.22a3.846 3.846 0 0 0 3.846-3.846V56.306l5.827 4.633L90 54.515z" style="stroke:rgb(0, 202, 255);animation-play-state:paused" ></path>
<path fill="#f8b26a" d="M51.271 42.685l3.558 7.209 7.955 1.156c1.163.169 1.627 1.598.786 2.418l-5.757 5.611 1.359 7.923c.199 1.158-1.017 2.041-2.057 1.495L50 64.756l-7.115 3.741c-1.04.547-2.256-.336-2.057-1.495l1.359-7.923-5.757-5.611c-.841-.82-.377-2.249.786-2.418l7.955-1.156 3.558-7.209c.52-1.054 2.022-1.054 2.542 0z" style="fill:rgb(255, 242, 89);animation-play-state:paused" ></path>
<metadata xmlns:d="https://loading.io/stock/" style="animation-play-state:paused" ><d:name style="animation-play-state:paused" >house</d:name>


<d:tags style="animation-play-state:paused" >house,home,landing page,building,construction,favorite,star,thumb up,like</d:tags>


<d:license style="animation-play-state:paused" >by</d:license>


<d:slug style="animation-play-state:paused" >sq9h9q</d:slug></metadata></g><!-- generated by https://loading.io/ --></svg>