<svg width="1821.3" height="1024" version="1.1" viewBox="0 0 1821.3 1024" xmlns="http://www.w3.org/2000/svg">
 <defs>
  <clipPath id="clipPath16">
   <path d="m0 768h1366v-768h-1366z"/>
  </clipPath>
 </defs>
 <g transform="matrix(1.3333 0 0 -1.3333 0 1024)">
  <g clip-path="url(#clipPath16)">
   <g transform="translate(793.23 157.44)">
    <path d="m0 0c0.944-0.506 1.904-0.967 2.876-1.323-0.928 0.461-1.89 0.9-2.876 1.323" fill="#dc1917"/>
   </g>
   <g transform="translate(874.83 317.19)">
    <path d="m0 0s-0.164-1.765-0.639-4.988c-0.211-1.623-0.667-3.54-1.153-5.817-0.522-2.263-1.074-4.887-1.984-7.687-3.299-11.301-9.963-26.883-21.864-41.829-5.964-7.414-12.654-14.628-19.963-21.541-7.377-6.838-15.436-13.279-24.051-19.208-17.298-11.731-36.975-21.241-57.772-27.084-10.37-2.983-20.985-5.16-31.623-6.339-10.63-1.226-21.254-1.707-31.686-1.192-10.433 0.43-20.709 1.611-30.581 3.662-4.961 0.882-9.768 2.246-14.528 3.445-4.692 1.467-9.357 2.78-13.8 4.521-4.429 1.812-10.938 4.816-17.204 8.193-3.129 1.706-6.257 3.376-9.004 5.126-2.768 1.709-5.309 3.191-7.235 4.561-32.218 19.324-59.835 47.953-77.73 82.614-18.016 34.554-25.847 75.053-21.526 114.43 1.132 9.849 2.836 19.657 5.353 29.282 2.578 9.604 5.786 19.043 9.692 28.19 3.994 9.111 8.618 17.929 13.837 26.374 5.278 8.409 11.206 16.38 17.616 23.913 24.554 28.673 57.438 49.702 92.833 59.899 0.356 0.117 0.699 0.24 1.057 0.356 3.96 1.102 7.935 2.438 11.996 3.303 2.019 0.471 4.031 0.94 6.019 1.405 2.011 0.368 3.998 0.731 5.951 1.089 15.661 2.829 29.339 2.67 33.812 2.065 13.512-1.785 28.962-4.665 45.932-9.701 16.944-5.091 35.381-12.571 54.273-23.818-0.375-0.607 1.191-2.245 3.694-4.384 2.493-2.15 5.79-4.992 9.086-7.834 10.156-8.111 21.278-18.443 31.055-30.015 9.756-11.579 18.02-24.406 23.819-36.057-4.416 7.497-8.964 14.826-13.771 22.013-2.839 3.276-0.61-0.451 1.194-4.387 1.868-3.904 3.692-7.759 1.096-4.364-4.716 7.08-10.966 15.657-17.864 23.716-6.887 8.063-14.48 15.531-21.022 20.965l-0.913-1.1c9.694-8.138 17.088-15.718 23.822-23.82 6.694-8.132 12.835-16.753 19.037-27.785 2.899-5.62 4.999-10.457 6.388-14.433 1.507-3.925 2.236-7.017 2.685-9.08 0.862-4.14 0.181-4.358-1.665-0.647-3.244 7.608-7.259 15.42-11.798 23.192-4.514 7.791-9.741 15.46-15.521 22.685-11.084 14.131-24.418 26.398-37.598 35.63 5.434-3.947 4.99-4.534 4.585-5.068 1.261-0.99 2.772-2.178 4.428-3.48 0.081-0.064 0.163-0.125 0.242-0.19 0.381-0.299 0.761-0.597 1.154-0.907 1.495-1.297 3.094-2.685 4.714-4.089 0.313-0.277 0.633-0.54 0.945-0.82 0.366-0.318 0.727-0.631 1.094-0.949 1.57-1.513 3.13-2.988 4.635-4.437 0.294-0.289 0.592-0.57 0.885-0.862 0.304-0.296 0.634-0.603 0.925-0.897 1.94-2.034 3.703-3.883 5.114-5.364-1.982 2.158-3.997 4.238-6.039 6.261-0.289 0.286-0.587 0.574-0.885 0.862-1.887 1.846-3.793 3.649-5.729 5.386-0.317 0.274-0.63 0.546-0.945 0.82-1.936 1.712-3.886 3.39-5.868 4.996-0.079 0.062-0.162 0.128-0.242 0.19-11.24 9.078-23.211 16.476-35.818 22.437-20.319 9.518-42.471 15.392-66.964 16.539l-0.065-1.429s1.015-8e-3 2.529-0.145c1.516-0.115 3.537-0.269 5.558-0.422 2.026-0.106 4.028-0.446 5.537-0.614 1.507-0.193 2.513-0.32 2.513-0.32-0.098-0.709-0.294-2.126-0.391-2.831-9.878 1.238-22.868 1.917-36.378 0.794-13.502-1.071-27.469-3.899-39.181-7.958-11.729-4.016-21.268-8.852-26.695-12.515-2.776-1.727-4.49-3.243-5.074-4.097-0.58-0.865 0.013-1.145 1.995-0.726 0 0 0.827 0.504 2.107 1.185 1.289 0.66 3.01 1.541 4.733 2.422 1.702 0.917 3.47 1.7 4.793 2.291 1.323 0.597 2.202 0.995 2.202 0.995 0.29-0.652 0.868-1.96 0.868-1.96 14.074 5.922 30.819 10.34 47.84 11.898 17.02 1.616 34.226 0.421 48.959-2.751 0 0-0.261-1.405-0.391-2.109-5.878 1.184-11.842 1.828-17.824 2.275 8.767-0.768 14.833-2.357 19.421-3.738 5.29-1.774 8.685-3.275 12.084-4.679 10.111-4.313 27.113-10.835 44.281-22.653 8.569-5.862 17.128-12.962 24.87-21.027 7.753-8.05 14.676-17.055 20.23-26.339 3.718-6.193 2.381-6.928 1.783-7.261 7.243-12.246 11.476-24.134 14.356-36.191 2.705-12.127 3.882-24.545 3.658-38.673-0.574 28.252-8.618 56.015-23.456 79.849-14.736 23.861-36.206 43.607-61.312 56.164-25.054 12.613-53.707 18.026-81.752 15.183-27.948-2.735-54.9-13.704-76.539-31.238-5.502-4.253-6.415-5.867-7.365-7.401-0.474-0.768-0.95-1.528-1.95-2.66-0.946-1.19-2.398-2.769-4.886-5.123-4.77-4.903-9.345-10.045-13.478-15.509 5.396 4.447 2.117-1.661-1.64-7.176-4.099-6.351-7.78-13.069-10.957-20.071-3.18-7.006-5.695-14.348-7.738-21.818-2.048-7.472-3.494-15.128-4.256-22.85-0.761-7.709-1.152-15.49-0.703-23.189 0.399-7.687 1.26-15.277 2.705-22.664 1.504-7.373 3.481-14.545 5.855-21.462 2.433-6.901 5.356-13.487 8.51-19.793 3.174-6.303 6.818-12.175 10.514-17.797 5.813-8.232 12.465-15.953 20.612-23.341 4.03-3.749 8.579-7.224 13.475-10.758 5.034-3.32 10.385-6.792 16.501-9.726 0.32 0.642 0.32 0.642 0.639 1.281-0.158-0.314 0.503-0.876 1.695-1.553 1.216-0.629 2.956-1.386 4.89-2.218 3.903-1.587 8.663-3.245 11.766-4.597-0.227-0.679-0.227-0.679-0.454-1.357-0.244-0.699 6.221-2.908 12.912-4.405-0.164-0.698-0.164-0.698-0.327-1.394 6.776-1.311 13.571-2.455 20.44-3.237l5.168-0.436c1.722-0.147 3.46-0.091 5.188-0.122 3.462-0.101 6.921 0.287 10.351 0.697l0.064-1.43c3.459 0.566 8.666 0.715 13.837 1.381 5.168 0.62 10.307 1.619 13.5 3.152 0.164-0.698 0.164-0.698 0.327-1.393-0.083 0.348-0.163 0.697 0.62 1.151 0.786 0.438 2.429 0.985 5.739 1.975 9.934 2.899 16.272 5.715 20.092 7.7 3.872 1.887 5.292 2.893 5.292 2.893 2.292 1.179 4.907 2.439 7.575 4.029 2.737 1.466 5.518 3.254 8.393 5.053 5.633 3.756 11.457 7.868 16.326 12.138 2.548 2.008 4.696 4.218 6.82 6.042 2 1.957 3.799 3.713 5.308 5.189 2.887 3.074 4.731 4.927 4.872 4.81 4.092 5.629 7.461 9.597 10.593 13.8 1.559 2.102 3.164 4.189 4.602 6.636 0.739 1.211 1.518 2.465 2.258 3.833 0.693 1.393 1.399 2.872 2.118 4.464 0.962-0.471 0.311-4.089 0.367-6.154-0.054-1.994 0.847-2.544 4.751 3.601 3.698 6.232 8.456 14.586 12.609 23.812 4.174 9.201 7.833 19.232 10.323 28.038 2.537 8.825 4.199 16.197 5.56 20.157 1.342 3.93 2.414 3.928 2.951-2.156 0.153-0.993 0.336-2.609 0.539-4.701 0.213-2.093 0.459-4.663 0.499-7.551 0.104-2.891 0.222-6.115 0.075-9.49-0.046-1.694-0.095-3.429-0.142-5.184-0.134-1.753-0.268-3.524-0.403-5.296-0.19-3.571-0.776-7.084-1.171-10.495-0.459-3.396-1.123-6.596-1.599-9.532-1.226-5.786-2.246-10.366-2.737-12.398-0.778-1.913-1.489-4.963-2.463-8.366-0.457-1.716-0.906-3.551-1.333-5.427-0.508-1.838-0.993-3.718-1.436-5.563-1.803-7.343-3.378-13.967-2.196-14.711-1.165-1.828-2.33-3.652-3.425-5.361-1.094-1.709-2.22-3.23-3.108-4.589-1.794-2.705-2.935-4.553-2.674-4.751 1.118-0.881 8.425 7.384 15.393 18.651 0.861 1.411 1.784 2.83 2.621 4.316 0.82 1.497 1.646 3.012 2.473 4.524 1.709 3.002 3.125 6.152 4.571 9.138 2.788 6.017 5.058 11.678 6.591 15.841 2.095 3.971 3.127 3.683 3.43 1.22 0.253-2.439-0.013-7.155-1.111-11.642m65.962 13.336c-7.306 5.346 0.21 3.071-1.496 10.103-1.218-0.235-3.256 0.563-4.579 0.268-0.789 3.073-3.568 3.669-6.57 2.981-0.835 2.477-2.749 4.689-4.097 7.036-1.914-1.5-2.88-0.941-5.456-1.072-0.18 5.046-0.405 12.277-0.285 16.227 0.053 1.75-2.398 2.075-0.323 4.938 0.613 0.847 3.531 1.284 3.684 2.398-2e-3 -0.027 7.895 6.372 5.122 6.083-0.527-0.056-1.553-0.339-2.092-0.305-2.088 5.937 7.069 10.776 11.661 13.026 0.968 3.294 3.33 6.194 5.271 9.243-2.885 0.288-6.183 0.097-9.205 0.256 2.778 2.505 4.401 4.228 6.349 7.502 6.516 10.948-1.789 10.606-3.921 22.501-1.418 7.898 5.259 18.495 8.095 25.248-3.952 0.093-8.105-0.239-11.978 0.776 1.154 2.369 1.994 5.018 1.782 7.676-3.392 0.896-6.035 3.083-8.521 5.42-3.771 3.547-7.176 7.441-12.282 7.707-4.606 0.239-6.708-1.75-11.752-0.442-9.759 2.527-15.499 4.976-21.295 12.96-2.804 3.859-5.487 7.435-9.421 10.249-2.231 1.595-9.85 3.371-11.065 5.114-7.503 10.797-15.957 20.883-25.277 30.105 1.059 9.31 0.933 20.69-0.872 27.942-1.182 4.74-7.179 13.128-8.842 19.415-5.722 0.665-14.769-1.79-17.087 3.577-3.06-1.111-6.315-7e-3 -9.323-0.428 0.259 1.557-0.8 4.423-0.471 6.042-6.701-1.002-13.341-2.959-20.155-3.573 2.369 2.62 1.619 5.45 2.562 8.277-14.243-8.097-43.503-1.517-58.92 0.522-4.965 0.656-14.557 1.577-21.28-0.477-5.381 0.405-10.796 0.678-16.281 0.678-13.28 0-26.561-1.214-39.615-3.658-5.399-1.009-12.437-1.573-17.31-4.228-0.657-0.359-8.706-6.683-8.606-6.058-0.876-5.447-4.58-1.798-7.88-3.591-2.49-1.354-3.847-5.365-6.528-6.9-5.081-2.907-2.453-0.296-8.612 0.922-12.3 2.433-27.436-10.243-36.629-16.881-11.152-8.05-21.525-17.174-30.938-27.199-17.079-18.191-38.372-44.823-43.859-69.836 3.331 15.185 9.965 29.249 18.402 42.093 14.821 22.558 28.919 51.6 56.292 60.64-0.258 5.032 10.966 9.615 14.098 15.148-7.978 1.753-25.921-15.733-32.241-20.571-23.749-18.178-49.575-36.348-59.281-66.401-3.684-11.408-4.333-25.448-11.195-35.559-4.365-6.432-11.005-13.417-17.617-17.717-3.893-2.529-8.326-1.51-11.745-2.012-6.691-0.977-12.045-5.642-17.915-9.258-8.916-5.499-5.852-9.354-2.85-19.212 3.303-10.843 5.051-24.287 13.579-31.728 0.91 0.895 2.89 1.779 3.357 2.39-0.735-1.038-1.016-3.018-1.5-3.957 1.443-8e-3 3.037-0.985 4.641-0.821-3.557-7.755-0.988-11.464 1.748-19.613 2.549-7.594 3.128-15.572 5.618-22.904 5.207-15.321 13.483-30.73 17.244-46.73 2.996-0.606 6.167-0.313 7.685 2.112-0.224-2.368 0.471-4.771 1.226-6.867 10.526-0.603 10.642-4.526 18.944-8.269 6.745-3.044 6.152-0.717 10.647 1.724 5.961 3.237 7.555 1.559 14 0.83 0.422-5.544-1.502-13.232 0.31-18.523 1.587-4.645 4.079-3.707 6.559-6.778 9.263-11.472 16.609-23.481 27.692-33.339 14.928-13.282 36.702-18.682 53.272-30.124 5.34-3.689 11.082-5.711 15.952-9.016 0.761-0.515 0.666-3.411 1.626-4.06 2.229-1.513 3.568-0.356 6.372-1.128 3.044-0.839 5.146-0.141 8.036-1.454 4.972-2.254 8.562-7.51 14.122-8.333-1.237 10.95 27.447 8.449 32.899 8.449 9.953 0 19.728 0.735 29.319 2.047 6.689 0.026 13.357 0.17 19.97 0.678 16.646 1.272 26.861-10.641 40.832-14.262 0.122 0.837-0.169 1.677 0.103 2.478 6.811 0.952 14.203-0.864 20.54-3.584-4.963 2.659-9.275 7.271-10.114 12.685 3.445 1.199 11.447 0.747 14.413 3.484 2.231 2.056-0.419 5.087 0.933 7.16 2.592 3.982 6.816 11.416 10.521 15.263 4.041 4.198 9.626 7.407 14.506 10.619 5.5 3.62 13.484 5.781 17.821 9.689-1.14 0.216-2.26 0.144-3.405 0.286-0.867 6.169 4.209 7.087 9.13 8.837 3.245 1.153 13.676-0.077 15.556 3.486 1.538 2.915-2.17 4.808-1.861 6.531 1.983 11.064-1.708 13.492 12.387 14.203-0.317 1.331 0.501 3.283 0.178 4.606 2.752 0.713 5.342-0.332 6.97-2.306 1.528 9.538-9.813 15.9-17.862 15.678 3.796 7.264 15.604 12.211 23.16 14.432 5.373 1.575 19.329 4.086 24.049-0.124 0.247 2.607-0.201 5.277-1.35 7.609-0.039 0.081 6.328 0.696 6.953 0.672 0.641 2.497 1.538 5.428 3.442 7.169 0.564-0.478 1.056-1.008 1.623-1.519 2.463 3.382 8.478 12.647 11.464 4.447 2.024 1.032 3.333 3.336 4.03 5.807 9.214-6.372 11.75 8.755 12.026 15.475 1.008 0.168 1.819 0.649 2.8 0.805 0.071 5.986-5.7 5.084-9.814 8.093" fill="#dc1917"/>
   </g>
   <g transform="translate(582.52 582.9)">
    <path d="m0 0c2.644 0.972 4.179 3.653 7.038 4.43 6.072 1.651 9.086 0.019 15.026 3.274 5.305 2.905 10.183 5.905 16.185 8.097 4.849 1.772 8.53 2.226 13.518 3.818 2.273 0.726 4.819 0.437 6.852 1.171 10.759 3.887 21.43 5.02 33.218 5.64-0.198 0.807-0.426 1.526-0.71 2.445-21.297 1.187-38.432-7.229-58.661-11.1-8.737-1.671-13.383-6.125-20.33-9.015-5.704-2.373-17.279-2.276-19.294-9.223l-0.669-0.669c-0.061-0.06 6.865 0.777 7.827 1.132" fill="#dc1917"/>
   </g>
   <g transform="translate(834.93 577.07)">
    <path d="m0 0c2.476-3.005 3.339-6.397 6.242-9.491 2.076 5.085 2.871 11.38 4.561 16.761-8.303-1.798-3.321 5.79-7.26 6.727-1.995 0.474-9.363-5.188-9.554-7.152-0.329-3.36 4.215-4.665 6.011-6.845" fill="#dc1917"/>
   </g>
   <g transform="translate(787.54 607.22)">
    <path d="m0 0c-3.625 0.542-5.369-6.211-6.113-8.745 6.186-3.297 11.144 7.991 6.113 8.745" fill="#dc1917"/>
   </g>
   <g transform="translate(751.79 426.45)">
    <path d="m0 0 0.793-14.113s-5.137 6.501-13.322 9.792c-8.256 3.317-6.729 27.833 10.489 7.662 0.363-0.427 1.723-2.002 2.04-3.341" fill="#008ac6" fill-rule="evenodd"/>
   </g>
   <g transform="translate(746.58 447.76)">
    <path d="m0 0c8.421-10.595 21.444-35.741 28.368-42.441 6.923-6.699 13.848-16.081 16.753-23.452 2.903-7.372 0.036-9.859 0.036-9.859l-13.73-8.269s-2.083-1.947-12.887 8.523c-7.63 7.395-57.287 8.213-54.277 31.27 0.668 5.139-18.137-13.051-7.528-28.41 10.61-15.355 38.247-24.718 52.486-36.444 14.241-11.726 14.797-20.383 14.797-20.383s-22.613-8.094-46.346 1.676c-23.733 9.772-19.385 1.45-24.689 18.76-5.306 17.312-13.325 2.499-13.325 2.499s-25.09 24.811-10.848 3.589c14.239-21.219 22.615-27.918 22.615-27.918l-11.767 4.342c-40.255 55.405-40.172 141 42.484 136.09 4.798 6.106 18.917 18.606 27.083 14.52 0 0-9.773-19.824-9.225-24.096" fill="#fff" fill-rule="evenodd"/>
   </g>
   <g transform="translate(765.33 454.74)">
    <path d="m 0,0 -2.652,-18.568 c 0,0 11.59,-20.523 13.543,-23.175 1.953,-2.653 2.931,10.055 0.278,18.012 C 8.517,-15.777 0,0 0,0" fill="#fff" fill-rule="evenodd"/>
   </g>
   <g transform="translate(760.59 465.91)">
    <path d="m0 0s-1.675-25.269-3.49-23.454-5.444 8.236-5.444 8.236 9.076 23.594 8.934 15.218" fill="#fff" fill-rule="evenodd"/>
   </g>
   <g transform="translate(750.97 418.99)">
    <path d="m0 0 0.691-12.275s-4.47 5.654-11.588 8.517c-7.181 2.885-5.853 24.209 9.121 6.663 0.318-0.369 1.5-1.74 1.776-2.905" fill="#dc1917" fill-rule="evenodd"/>
   </g>
   <g transform="translate(710.38 305.58)">
    <path d="m0 0c-73.023-9.527-82.967 35.414-80.678 32.614 11.521-14.092 74.913-24.601 30.385-8.426-51.025 18.536-58.817 52.94-58.817 52.94s10.624-11.693 28.407-18.738c17.782-7.046 31.161-7.585 31.161-7.585s15.635-4.445-26.765 12.999-45.468 58.204-45.468 58.204 12.085-12.573 22.74-20.083c10.655-7.511 44.608-21.665 65.355-28.22s84.913-26.208 94.314-53.489c9.402-27.282-22.822-46.264-22.822-46.264s13.368 32.725-37.812 26.048" fill="#fff"/>
   </g>
   <g transform="translate(675.94 448.47)">
    <path d="m0 0s-25.2 19.868-33.822 29.811c-7.392 8.524-13.259 17.275-15.901 23.494-2.643 6.219-2.911 11.285-2.911 11.285s-8.291-21.278-9e-3 -34.722c8.283-13.445 20.041-27.126 20.041-27.126s-12.033 7.567-18.523 16.171c-7.558 10.021-6.981 9.016-6.981 9.016s-5.481-18.12 13.202-36.095c15.506-14.918 15.95-15.855 15.95-15.855s-6.787 3.143-9.645 5.234c-9.526 6.972-10.787 7.86-13.892 12.129-3.218 4.423-2.989-17.535 2.596-20.039s29.304-11.67 29.304-11.67 1.579 25.227 20.591 38.367" fill="#fff"/>
   </g>
   <g transform="translate(874.83 317.19)">
    <path d="m0 0s-0.164-1.765-0.639-4.988c-0.211-1.623-0.667-3.54-1.153-5.817-0.522-2.263-1.074-4.887-1.984-7.687-3.299-11.301-9.963-26.883-21.864-41.829-5.964-7.414-12.654-14.628-19.963-21.541-7.377-6.838-15.436-13.279-24.051-19.208-17.298-11.731-36.975-21.241-57.772-27.084-10.37-2.983-20.985-5.16-31.623-6.339-10.63-1.226-21.254-1.707-31.686-1.192-10.433 0.43-20.709 1.611-30.581 3.662-4.961 0.882-9.768 2.246-14.528 3.445-4.692 1.467-9.357 2.78-13.8 4.521-4.429 1.812-10.938 4.816-17.204 8.193-3.129 1.706-6.257 3.376-9.004 5.126-2.768 1.709-5.309 3.191-7.235 4.561-32.218 19.324-59.835 47.953-77.73 82.614-18.016 34.554-25.847 75.053-21.526 114.43 1.132 9.849 2.836 19.657 5.353 29.282 2.578 9.604 5.786 19.043 9.692 28.19 3.994 9.111 8.618 17.929 13.837 26.374 5.278 8.409 11.206 16.38 17.616 23.913 24.554 28.673 57.438 49.702 92.833 59.899 0.356 0.117 0.699 0.24 1.057 0.356 3.96 1.102 7.935 2.438 11.996 3.303 2.019 0.471 4.031 0.94 6.019 1.405 2.011 0.368 3.998 0.731 5.951 1.089 15.661 2.829 29.339 2.67 33.812 2.065 13.512-1.785 28.962-4.665 45.932-9.701 16.944-5.091 35.381-12.571 54.273-23.818-0.375-0.607 1.191-2.245 3.694-4.384 2.493-2.15 5.79-4.992 9.086-7.834 10.156-8.111 21.278-18.443 31.055-30.015 9.756-11.579 18.02-24.406 23.819-36.057-4.416 7.497-8.964 14.826-13.771 22.013-2.839 3.276-0.61-0.451 1.194-4.387 1.868-3.904 3.692-7.759 1.096-4.364-4.716 7.08-10.966 15.657-17.864 23.716-6.887 8.063-14.48 15.531-21.022 20.965l-0.913-1.1c9.694-8.138 17.088-15.718 23.822-23.82 6.694-8.132 12.835-16.753 19.037-27.785 2.899-5.62 4.999-10.457 6.388-14.433 1.507-3.925 2.236-7.017 2.685-9.08 0.862-4.14 0.181-4.358-1.665-0.647-3.244 7.608-7.259 15.42-11.798 23.192-4.514 7.791-9.741 15.46-15.521 22.685-11.084 14.131-24.418 26.398-37.598 35.63 5.434-3.947 4.99-4.534 4.585-5.068 1.261-0.99 2.772-2.178 4.428-3.48 0.081-0.064 0.163-0.125 0.242-0.19 0.381-0.299 0.761-0.597 1.154-0.907 1.495-1.297 3.094-2.685 4.714-4.089 0.313-0.277 0.633-0.54 0.945-0.82 0.366-0.318 0.727-0.631 1.094-0.949 1.57-1.513 3.13-2.988 4.635-4.437 0.294-0.289 0.592-0.57 0.885-0.862 0.304-0.296 0.634-0.603 0.925-0.897 1.94-2.034 3.703-3.883 5.114-5.364-1.982 2.158-3.997 4.238-6.039 6.261-0.289 0.286-0.587 0.574-0.885 0.862-1.887 1.846-3.793 3.649-5.729 5.386-0.317 0.274-0.63 0.546-0.945 0.82-1.936 1.712-3.886 3.39-5.868 4.996-0.079 0.062-0.162 0.128-0.242 0.19-11.24 9.078-23.211 16.476-35.818 22.437-20.319 9.518-42.471 15.392-66.964 16.539l-0.065-1.429s1.015-8e-3 2.529-0.145c1.516-0.115 3.537-0.269 5.558-0.422 2.026-0.106 4.028-0.446 5.537-0.614 1.507-0.193 2.513-0.32 2.513-0.32-0.098-0.709-0.294-2.126-0.391-2.831-9.878 1.238-22.868 1.917-36.378 0.794-13.502-1.071-27.469-3.899-39.181-7.958-11.729-4.016-21.268-8.852-26.695-12.515-2.776-1.727-4.49-3.243-5.074-4.097-0.58-0.865 0.013-1.145 1.995-0.726 0 0 0.827 0.504 2.107 1.185 1.289 0.66 3.01 1.541 4.733 2.422 1.702 0.917 3.47 1.7 4.793 2.291 1.323 0.597 2.202 0.995 2.202 0.995 0.29-0.652 0.868-1.96 0.868-1.96 14.074 5.922 30.819 10.34 47.84 11.898 17.02 1.616 34.226 0.421 48.959-2.751 0 0-0.261-1.405-0.391-2.109-5.878 1.184-11.842 1.828-17.824 2.275 8.767-0.768 14.833-2.357 19.421-3.738 5.29-1.774 8.685-3.275 12.084-4.679 10.111-4.313 27.113-10.835 44.281-22.653 8.569-5.862 17.128-12.962 24.87-21.027 7.753-8.05 14.676-17.055 20.23-26.339 3.718-6.193 2.381-6.928 1.783-7.261 7.243-12.246 11.476-24.134 14.356-36.191 2.705-12.127 3.882-24.545 3.658-38.673-0.574 28.252-8.618 56.015-23.456 79.849-14.736 23.861-36.206 43.607-61.312 56.164-25.054 12.613-53.707 18.026-81.752 15.183-27.948-2.735-54.9-13.704-76.539-31.238-5.502-4.253-6.415-5.867-7.365-7.401-0.474-0.768-0.95-1.528-1.95-2.66-0.946-1.19-2.398-2.769-4.886-5.123-4.77-4.903-9.345-10.045-13.478-15.509 5.396 4.447 2.117-1.661-1.64-7.176-4.099-6.351-7.78-13.069-10.957-20.071-3.18-7.006-5.695-14.348-7.738-21.818-2.048-7.472-3.494-15.128-4.256-22.85-0.761-7.709-1.152-15.49-0.703-23.189 0.399-7.687 1.26-15.277 2.705-22.664 1.504-7.373 3.481-14.545 5.855-21.462 2.433-6.901 5.356-13.487 8.51-19.793 3.174-6.303 6.818-12.175 10.514-17.797 5.813-8.232 12.465-15.953 20.612-23.341 4.03-3.749 8.579-7.224 13.475-10.758 5.034-3.32 10.385-6.792 16.501-9.726 0.32 0.642 0.32 0.642 0.639 1.281-0.158-0.314 0.503-0.876 1.695-1.553 1.216-0.629 2.956-1.386 4.89-2.218 3.903-1.587 8.663-3.245 11.766-4.597-0.227-0.679-0.227-0.679-0.454-1.357-0.244-0.699 6.221-2.908 12.912-4.405-0.164-0.698-0.164-0.698-0.327-1.394 6.776-1.311 13.571-2.455 20.44-3.237l5.168-0.436c1.722-0.147 3.46-0.091 5.188-0.122 3.462-0.101 6.921 0.287 10.351 0.697l0.064-1.43c3.459 0.566 8.666 0.715 13.837 1.381 5.168 0.62 10.307 1.619 13.5 3.152 0.164-0.698 0.164-0.698 0.327-1.393-0.083 0.348-0.163 0.697 0.62 1.151 0.786 0.438 2.429 0.985 5.739 1.975 9.934 2.899 16.272 5.715 20.092 7.7 3.872 1.887 5.292 2.893 5.292 2.893 2.292 1.179 4.907 2.439 7.575 4.029 2.737 1.466 5.518 3.254 8.393 5.053 5.633 3.756 11.457 7.868 16.326 12.138 2.548 2.008 4.696 4.218 6.82 6.042 2 1.957 3.799 3.713 5.308 5.189 2.887 3.074 4.731 4.927 4.872 4.81 4.092 5.629 7.461 9.597 10.593 13.8 1.559 2.102 3.164 4.189 4.602 6.636 0.739 1.211 1.518 2.465 2.258 3.833 0.693 1.393 1.399 2.872 2.118 4.464 0.962-0.471 0.311-4.089 0.367-6.154-0.054-1.994 0.847-2.544 4.751 3.601 3.698 6.232 8.456 14.586 12.609 23.812 4.174 9.201 7.833 19.232 10.323 28.038 2.537 8.825 4.199 16.197 5.56 20.157 1.342 3.93 2.414 3.928 2.951-2.156 0.153-0.993 0.336-2.609 0.539-4.701 0.213-2.093 0.459-4.663 0.499-7.551 0.104-2.891 0.222-6.115 0.075-9.49-0.046-1.694-0.095-3.429-0.142-5.184-0.134-1.753-0.268-3.524-0.403-5.296-0.19-3.571-0.776-7.084-1.171-10.495-0.459-3.396-1.123-6.596-1.599-9.532-1.226-5.786-2.246-10.366-2.737-12.398-0.778-1.913-1.489-4.963-2.463-8.366-0.457-1.716-0.906-3.551-1.333-5.427-0.508-1.838-0.993-3.718-1.436-5.563-1.803-7.343-3.378-13.967-2.196-14.711-1.165-1.828-2.33-3.652-3.425-5.361-1.094-1.709-2.22-3.23-3.108-4.589-1.794-2.705-2.935-4.553-2.674-4.751 1.118-0.881 8.425 7.384 15.393 18.651 0.861 1.411 1.784 2.83 2.621 4.316 0.82 1.497 1.646 3.012 2.473 4.524 1.709 3.002 3.125 6.152 4.571 9.138 2.788 6.017 5.058 11.678 6.591 15.841 2.095 3.971 3.127 3.683 3.43 1.22 0.253-2.439-0.013-7.155-1.111-11.642" fill="#352978"/>
   </g>
  </g>
 </g>
</svg>
